<?xml version="1.0" encoding="utf-8" standalone="no"?>
<!DOCTYPE svg PUBLIC "-//W3C//DTD SVG 1.1//EN"
  "http://www.w3.org/Graphics/SVG/1.1/DTD/svg11.dtd">
<svg xmlns:xlink="http://www.w3.org/1999/xlink" width="572.4pt" height="405.484453pt" viewBox="0 0 572.4 405.484453" xmlns="http://www.w3.org/2000/svg" version="1.1">
 <metadata>
  <rdf:RDF xmlns:dc="http://purl.org/dc/elements/1.1/" xmlns:cc="http://creativecommons.org/ns#" xmlns:rdf="http://www.w3.org/1999/02/22-rdf-syntax-ns#">
   <cc:Work>
    <dc:type rdf:resource="http://purl.org/dc/dcmitype/StillImage"/>
    <dc:date>2026-08-12T12:07:57.919872</dc:date>
    <dc:format>image/svg+xml</dc:format>
    <dc:creator>
     <cc:Agent>
      <dc:title>Matplotlib v3.11.1, https://matplotlib.org/</dc:title>
     </cc:Agent>
    </dc:creator>
   </cc:Work>
  </rdf:RDF>
 </metadata>
 <defs>
  <style type="text/css">*{stroke-linejoin: round; stroke-linecap: butt}</style>
 </defs>
 <g id="figure_1">
  <g id="patch_1">
   <path d="M 0 405.484453 
L 572.4 405.484453 
L 572.4 0 
L 0 0 
z
" style="fill: #ffffff"/>
  </g>
  <g id="axes_1">
   <g id="patch_2">
    <path d="M 40.68 165.594853 
L 185.76 165.594853 
Q 190.224 165.594853 190.224 161.476453 
L 190.224 89.404453 
Q 190.224 85.286053 185.76 85.286053 
L 40.68 85.286053 
Q 36.216 85.286053 36.216 89.404453 
L 36.216 161.476453 
Q 36.216 165.594853 40.68 165.594853 
z
" clip-path="url(#pb102c972f7)" style="fill: #f5b7b1; opacity: 0.9; stroke: #000000; stroke-width: 1.3; stroke-linejoin: miter"/>
   </g>
   <g id="patch_3">
    <path d="M 40.68 350.922853 
L 185.76 350.922853 
Q 190.224 350.922853 190.224 346.804453 
L 190.224 274.732453 
Q 190.224 270.614053 185.76 270.614053 
L 40.68 270.614053 
Q 36.216 270.614053 36.216 274.732453 
L 36.216 346.804453 
Q 36.216 350.922853 40.68 350.922853 
z
" clip-path="url(#pb102c972f7)" style="fill: #aed6f1; opacity: 0.9; stroke: #000000; stroke-width: 1.3; stroke-linejoin: miter"/>
   </g>
   <g id="patch_4">
    <path d="M 386.64 165.594853 
L 531.72 165.594853 
Q 536.184 165.594853 536.184 161.476453 
L 536.184 89.404453 
Q 536.184 85.286053 531.72 85.286053 
L 386.64 85.286053 
Q 382.176 85.286053 382.176 89.404453 
L 382.176 161.476453 
Q 382.176 165.594853 386.64 165.594853 
z
" clip-path="url(#pb102c972f7)" style="fill: #d5f5e3; opacity: 0.9; stroke: #000000; stroke-width: 1.3; stroke-linejoin: miter"/>
   </g>
   <g id="patch_5">
    <path d="M 386.64 247.962853 
L 531.72 247.962853 
Q 536.184 247.962853 536.184 243.844453 
L 536.184 176.920453 
Q 536.184 172.802053 531.72 172.802053 
L 386.64 172.802053 
Q 382.176 172.802053 382.176 176.920453 
L 382.176 243.844453 
Q 382.176 247.962853 386.64 247.962853 
z
" clip-path="url(#pb102c972f7)" style="fill: #d5f5e3; opacity: 0.9; stroke: #000000; stroke-width: 1.3; stroke-linejoin: miter"/>
   </g>
   <g id="patch_6">
    <path d="M 386.64 325.182853 
L 531.72 325.182853 
Q 536.184 325.182853 536.184 321.064453 
L 536.184 254.140453 
Q 536.184 250.022053 531.72 250.022053 
L 386.64 250.022053 
Q 382.176 250.022053 382.176 254.140453 
L 382.176 321.064453 
Q 382.176 325.182853 386.64 325.182853 
z
" clip-path="url(#pb102c972f7)" style="fill: #d5f5e3; opacity: 0.9; stroke: #000000; stroke-width: 1.3; stroke-linejoin: miter"/>
   </g>
   <g id="patch_7">
    <path d="M 224.82 402.402853 
L 347.58 402.402853 
Q 352.044 402.402853 352.044 398.284453 
L 352.044 346.804453 
Q 352.044 342.686053 347.58 342.686053 
L 224.82 342.686053 
Q 220.356 342.686053 220.356 346.804453 
L 220.356 398.284453 
Q 220.356 402.402853 224.82 402.402853 
z
" clip-path="url(#pb102c972f7)" style="fill: #fad7a0; opacity: 0.9; stroke: #000000; stroke-width: 1.3; stroke-linejoin: miter"/>
   </g>
   <g id="patch_8">
    <path d="M 187.761566 125.440453 
Q 286.200868 125.440453 382.851315 125.440453 
" clip-path="url(#pb102c972f7)" style="fill: none; stroke: #000000; stroke-width: 1.6; stroke-linecap: round"/>
    <path d="M 376.851315 122.440453 
L 382.851315 125.440453 
L 376.851315 128.440453 
z
" clip-path="url(#pb102c972f7)" style="stroke: #000000; stroke-width: 1.6; stroke-linecap: round"/>
   </g>
   <g id="patch_9">
    <path d="M 187.235783 309.414917 
Q 271.77926 232.242672 382.903291 213.579242 
" clip-path="url(#pb102c972f7)" style="fill: none; stroke: #000000; stroke-width: 1.6; stroke-linecap: round"/>
    <path d="M 376.48927 211.614468 
L 382.903291 213.579242 
L 377.483059 217.531595 
z
" clip-path="url(#pb102c972f7)" style="stroke: #000000; stroke-width: 1.6; stroke-linecap: round"/>
   </g>
   <g id="patch_10">
    <path d="M 187.68386 325.667133 
Q 284.433429 298.344286 382.864287 290.476325 
" clip-path="url(#pb102c972f7)" style="fill: none; stroke: #000000; stroke-width: 1.6; stroke-linecap: round"/>
    <path d="M 376.644325 287.963942 
L 382.864287 290.476325 
L 377.122403 293.944865 
z
" clip-path="url(#pb102c972f7)" style="stroke: #000000; stroke-width: 1.6; stroke-linecap: round"/>
   </g>
   <g id="patch_11">
    <path d="M 113.22 163.47765 
Q 113.22 218.105157 113.22 270.94381 
" clip-path="url(#pb102c972f7)" style="fill: none; stroke: #7b241c; stroke-width: 1.6; stroke-linecap: round"/>
    <path d="M 116.22 264.94381 
L 113.22 270.94381 
L 110.22 264.94381 
z
" clip-path="url(#pb102c972f7)" style="fill: #7b241c; stroke: #7b241c; stroke-width: 1.6; stroke-linecap: round"/>
   </g>
   <g id="patch_12">
    <path d="M 141.12 272.731256 
Q 141.12 218.103749 141.12 165.265096 
" clip-path="url(#pb102c972f7)" style="fill: none; stroke: #1b4f72; stroke-width: 1.6; stroke-linecap: round"/>
    <path d="M 138.12 171.265096 
L 141.12 165.265096 
L 144.12 171.265096 
z
" clip-path="url(#pb102c972f7)" style="fill: #1b4f72; stroke: #1b4f72; stroke-width: 1.6; stroke-linecap: round"/>
   </g>
   <g id="patch_13">
    <path d="M 285.565434 344.906043 
Q 244.581066 223.368644 133.298158 163.273099 
" clip-path="url(#pb102c972f7)" style="fill: none; stroke-dasharray: 5.92,2.56; stroke-dashoffset: 0; stroke: #b9770e; stroke-width: 1.6; stroke-linecap: round"/>
    <path d="M 137.152037 168.763783 
L 133.298158 163.273099 
L 140.003033 163.484406 
z
" clip-path="url(#pb102c972f7)" style="fill: #b9770e; stroke-dasharray: 5.92,2.56; stroke-dashoffset: 0; stroke: #b9770e; stroke-width: 1.6; stroke-linecap: round"/>
   </g>
   <g id="text_1">
    <!-- Degradation state -->
    <g transform="translate(67.929375 121.136352) scale(0.1 -0.1)">
     <defs>
      <path id="DejaVuSans-27" d="M 1259 4147 
L 1259 519 
L 2022 519 
Q 2988 519 3436 956 
Q 3884 1394 3884 2338 
Q 3884 3275 3436 3711 
Q 2988 4147 2022 4147 
L 1259 4147 
z
M 628 4666 
L 1925 4666 
Q 3281 4666 3915 4102 
Q 4550 3538 4550 2338 
Q 4550 1131 3912 565 
Q 3275 0 1925 0 
L 628 0 
L 628 4666 
z
" transform="scale(0.015625)"/>
      <path id="DejaVuSans-48" d="M 3597 1894 
L 3597 1613 
L 953 1613 
Q 991 1019 1311 708 
Q 1631 397 2203 397 
Q 2534 397 2845 478 
Q 3156 559 3463 722 
L 3463 178 
Q 3153 47 2828 -22 
Q 2503 -91 2169 -91 
Q 1331 -91 842 396 
Q 353 884 353 1716 
Q 353 2575 817 3079 
Q 1281 3584 2069 3584 
Q 2775 3584 3186 3129 
Q 3597 2675 3597 1894 
z
M 3022 2063 
Q 3016 2534 2758 2815 
Q 2500 3097 2075 3097 
Q 1594 3097 1305 2825 
Q 1016 2553 972 2059 
L 3022 2063 
z
" transform="scale(0.015625)"/>
      <path id="DejaVuSans-4a" d="M 2906 1791 
Q 2906 2416 2648 2759 
Q 2391 3103 1925 3103 
Q 1463 3103 1205 2759 
Q 947 2416 947 1791 
Q 947 1169 1205 825 
Q 1463 481 1925 481 
Q 2391 481 2648 825 
Q 2906 1169 2906 1791 
z
M 3481 434 
Q 3481 -459 3084 -895 
Q 2688 -1331 1869 -1331 
Q 1566 -1331 1297 -1286 
Q 1028 -1241 775 -1147 
L 775 -588 
Q 1028 -725 1275 -790 
Q 1522 -856 1778 -856 
Q 2344 -856 2625 -561 
Q 2906 -266 2906 331 
L 2906 616 
Q 2728 306 2450 153 
Q 2172 0 1784 0 
Q 1141 0 747 490 
Q 353 981 353 1791 
Q 353 2603 747 3093 
Q 1141 3584 1784 3584 
Q 2172 3584 2450 3431 
Q 2728 3278 2906 2969 
L 2906 3500 
L 3481 3500 
L 3481 434 
z
" transform="scale(0.015625)"/>
      <path id="DejaVuSans-55" d="M 2631 2963 
Q 2534 3019 2420 3045 
Q 2306 3072 2169 3072 
Q 1681 3072 1420 2755 
Q 1159 2438 1159 1844 
L 1159 0 
L 581 0 
L 581 3500 
L 1159 3500 
L 1159 2956 
Q 1341 3275 1631 3429 
Q 1922 3584 2338 3584 
Q 2397 3584 2469 3576 
Q 2541 3569 2628 3553 
L 2631 2963 
z
" transform="scale(0.015625)"/>
      <path id="DejaVuSans-44" d="M 2194 1759 
Q 1497 1759 1228 1600 
Q 959 1441 959 1056 
Q 959 750 1161 570 
Q 1363 391 1709 391 
Q 2188 391 2477 730 
Q 2766 1069 2766 1631 
L 2766 1759 
L 2194 1759 
z
M 3341 1997 
L 3341 0 
L 2766 0 
L 2766 531 
Q 2569 213 2275 61 
Q 1981 -91 1556 -91 
Q 1019 -91 701 211 
Q 384 513 384 1019 
Q 384 1609 779 1909 
Q 1175 2209 1959 2209 
L 2766 2209 
L 2766 2266 
Q 2766 2663 2505 2880 
Q 2244 3097 1772 3097 
Q 1472 3097 1187 3025 
Q 903 2953 641 2809 
L 641 3341 
Q 956 3463 1253 3523 
Q 1550 3584 1831 3584 
Q 2591 3584 2966 3190 
Q 3341 2797 3341 1997 
z
" transform="scale(0.015625)"/>
      <path id="DejaVuSans-47" d="M 2906 2969 
L 2906 4863 
L 3481 4863 
L 3481 0 
L 2906 0 
L 2906 525 
Q 2725 213 2448 61 
Q 2172 -91 1784 -91 
Q 1150 -91 751 415 
Q 353 922 353 1747 
Q 353 2572 751 3078 
Q 1150 3584 1784 3584 
Q 2172 3584 2448 3432 
Q 2725 3281 2906 2969 
z
M 947 1747 
Q 947 1113 1208 752 
Q 1469 391 1925 391 
Q 2381 391 2643 752 
Q 2906 1113 2906 1747 
Q 2906 2381 2643 2742 
Q 2381 3103 1925 3103 
Q 1469 3103 1208 2742 
Q 947 2381 947 1747 
z
" transform="scale(0.015625)"/>
      <path id="DejaVuSans-57" d="M 1172 4494 
L 1172 3500 
L 2356 3500 
L 2356 3053 
L 1172 3053 
L 1172 1153 
Q 1172 725 1289 603 
Q 1406 481 1766 481 
L 2356 481 
L 2356 0 
L 1766 0 
Q 1100 0 847 248 
Q 594 497 594 1153 
L 594 3053 
L 172 3053 
L 172 3500 
L 594 3500 
L 594 4494 
L 1172 4494 
z
" transform="scale(0.015625)"/>
      <path id="DejaVuSans-4c" d="M 603 3500 
L 1178 3500 
L 1178 0 
L 603 0 
L 603 3500 
z
M 603 4863 
L 1178 4863 
L 1178 4134 
L 603 4134 
L 603 4863 
z
" transform="scale(0.015625)"/>
      <path id="DejaVuSans-52" d="M 1959 3097 
Q 1497 3097 1228 2736 
Q 959 2375 959 1747 
Q 959 1119 1226 758 
Q 1494 397 1959 397 
Q 2419 397 2687 759 
Q 2956 1122 2956 1747 
Q 2956 2369 2687 2733 
Q 2419 3097 1959 3097 
z
M 1959 3584 
Q 2709 3584 3137 3096 
Q 3566 2609 3566 1747 
Q 3566 888 3137 398 
Q 2709 -91 1959 -91 
Q 1206 -91 779 398 
Q 353 888 353 1747 
Q 353 2609 779 3096 
Q 1206 3584 1959 3584 
z
" transform="scale(0.015625)"/>
      <path id="DejaVuSans-51" d="M 3513 2113 
L 3513 0 
L 2938 0 
L 2938 2094 
Q 2938 2591 2744 2837 
Q 2550 3084 2163 3084 
Q 1697 3084 1428 2787 
Q 1159 2491 1159 1978 
L 1159 0 
L 581 0 
L 581 3500 
L 1159 3500 
L 1159 2956 
Q 1366 3272 1645 3428 
Q 1925 3584 2291 3584 
Q 2894 3584 3203 3211 
Q 3513 2838 3513 2113 
z
" transform="scale(0.015625)"/>
      <path id="DejaVuSans-3" transform="scale(0.015625)"/>
      <path id="DejaVuSans-56" d="M 2834 3397 
L 2834 2853 
Q 2591 2978 2328 3040 
Q 2066 3103 1784 3103 
Q 1356 3103 1142 2972 
Q 928 2841 928 2578 
Q 928 2378 1081 2264 
Q 1234 2150 1697 2047 
L 1894 2003 
Q 2506 1872 2764 1633 
Q 3022 1394 3022 966 
Q 3022 478 2636 193 
Q 2250 -91 1575 -91 
Q 1294 -91 989 -36 
Q 684 19 347 128 
L 347 722 
Q 666 556 975 473 
Q 1284 391 1588 391 
Q 1994 391 2212 530 
Q 2431 669 2431 922 
Q 2431 1156 2273 1281 
Q 2116 1406 1581 1522 
L 1381 1569 
Q 847 1681 609 1914 
Q 372 2147 372 2553 
Q 372 3047 722 3315 
Q 1072 3584 1716 3584 
Q 2034 3584 2315 3537 
Q 2597 3491 2834 3397 
z
" transform="scale(0.015625)"/>
     </defs>
     <use xlink:href="#DejaVuSans-27"/>
     <use xlink:href="#DejaVuSans-48" transform="translate(77 0)"/>
     <use xlink:href="#DejaVuSans-4a" transform="translate(138.53125 0)"/>
     <use xlink:href="#DejaVuSans-55" transform="translate(202.015625 0)"/>
     <use xlink:href="#DejaVuSans-44" transform="translate(243.125 0)"/>
     <use xlink:href="#DejaVuSans-47" transform="translate(304.40625 0)"/>
     <use xlink:href="#DejaVuSans-44" transform="translate(367.890625 0)"/>
     <use xlink:href="#DejaVuSans-57" transform="translate(429.171875 0)"/>
     <use xlink:href="#DejaVuSans-4c" transform="translate(468.375 0)"/>
     <use xlink:href="#DejaVuSans-52" transform="translate(496.15625 0)"/>
     <use xlink:href="#DejaVuSans-51" transform="translate(557.34375 0)"/>
     <use xlink:href="#DejaVuSans-3" transform="translate(620.71875 0)"/>
     <use xlink:href="#DejaVuSans-56" transform="translate(652.5 0)"/>
     <use xlink:href="#DejaVuSans-57" transform="translate(704.59375 0)"/>
     <use xlink:href="#DejaVuSans-44" transform="translate(743.796875 0)"/>
     <use xlink:href="#DejaVuSans-57" transform="translate(805.078125 0)"/>
     <use xlink:href="#DejaVuSans-48" transform="translate(844.28125 0)"/>
    </g>
    <!-- $^{C}D^{\alpha}x_i(t)$ -->
    <g transform="translate(93.97 134.940648) scale(0.1 -0.1)">
     <defs>
      <path id="DejaVuSans-Oblique-26" d="M 4447 4306 
L 4319 3641 
Q 4019 3944 3683 4091 
Q 3347 4238 2956 4238 
Q 2422 4238 2017 3981 
Q 1613 3725 1319 3200 
Q 1131 2863 1032 2486 
Q 934 2109 934 1728 
Q 934 1091 1264 756 
Q 1594 422 2222 422 
Q 2656 422 3056 561 
Q 3456 700 3834 978 
L 3688 231 
Q 3316 72 2936 -9 
Q 2556 -91 2175 -91 
Q 1278 -91 773 396 
Q 269 884 269 1753 
Q 269 2309 461 2846 
Q 653 3384 1013 3828 
Q 1394 4300 1883 4525 
Q 2372 4750 3022 4750 
Q 3422 4750 3780 4639 
Q 4138 4528 4447 4306 
z
" transform="scale(0.015625)"/>
      <path id="DejaVuSans-Oblique-27" d="M 1081 4666 
L 2438 4666 
Q 3519 4666 4070 4208 
Q 4622 3750 4622 2847 
Q 4622 2250 4412 1698 
Q 4203 1147 3834 769 
Q 3463 381 2891 190 
Q 2319 0 1538 0 
L 172 0 
L 1081 4666 
z
M 1613 4147 
L 909 519 
L 1734 519 
Q 2794 519 3375 1128 
Q 3956 1738 3956 2847 
Q 3956 3519 3581 3833 
Q 3206 4147 2406 4147 
L 1613 4147 
z
" transform="scale(0.015625)"/>
      <path id="DejaVuSans-Oblique-345" d="M 2619 1628 
L 2622 2350 
Q 2625 3088 2069 3091 
Q 1653 3094 1394 2747 
Q 1069 2319 959 1747 
Q 825 1059 994 731 
Q 1169 397 1547 397 
Q 1966 397 2319 1063 
L 2619 1628 
z
M 2166 3578 
Q 3141 3594 3128 2584 
Q 3128 2584 3616 3500 
L 4128 3500 
L 3119 1603 
L 3109 919 
Q 3109 766 3194 638 
Q 3291 488 3391 488 
L 3669 488 
L 3575 0 
L 3228 0 
Q 2934 0 2722 263 
Q 2622 394 2619 669 
Q 2416 334 2066 50 
Q 1900 -81 1453 -78 
Q 722 -72 456 397 
Q 184 884 353 1747 
Q 534 2675 1009 3097 
Q 1544 3569 2166 3578 
z
" transform="scale(0.015625)"/>
      <path id="DejaVuSans-Oblique-5b" d="M 3841 3500 
L 2234 1784 
L 3219 0 
L 2559 0 
L 1819 1388 
L 531 0 
L -166 0 
L 1556 1844 
L 641 3500 
L 1300 3500 
L 1972 2234 
L 3144 3500 
L 3841 3500 
z
" transform="scale(0.015625)"/>
      <path id="DejaVuSans-Oblique-4c" d="M 1172 4863 
L 1747 4863 
L 1606 4134 
L 1031 4134 
L 1172 4863 
z
M 909 3500 
L 1484 3500 
L 800 0 
L 225 0 
L 909 3500 
z
" transform="scale(0.015625)"/>
      <path id="DejaVuSans-b" d="M 1984 4856 
Q 1566 4138 1362 3434 
Q 1159 2731 1159 2009 
Q 1159 1288 1364 580 
Q 1569 -128 1984 -844 
L 1484 -844 
Q 1016 -109 783 600 
Q 550 1309 550 2009 
Q 550 2706 781 3412 
Q 1013 4119 1484 4856 
L 1984 4856 
z
" transform="scale(0.015625)"/>
      <path id="DejaVuSans-Oblique-57" d="M 2706 3500 
L 2619 3053 
L 1472 3053 
L 1100 1153 
Q 1081 1047 1072 975 
Q 1063 903 1063 863 
Q 1063 663 1183 572 
Q 1303 481 1569 481 
L 2150 481 
L 2053 0 
L 1503 0 
Q 991 0 739 200 
Q 488 400 488 806 
Q 488 878 497 964 
Q 506 1050 525 1153 
L 897 3053 
L 409 3053 
L 500 3500 
L 978 3500 
L 1172 4494 
L 1747 4494 
L 1556 3500 
L 2706 3500 
z
" transform="scale(0.015625)"/>
      <path id="DejaVuSans-c" d="M 513 4856 
L 1013 4856 
Q 1481 4119 1714 3412 
Q 1947 2706 1947 2009 
Q 1947 1309 1714 600 
Q 1481 -109 1013 -844 
L 513 -844 
Q 928 -128 1133 580 
Q 1338 1288 1338 2009 
Q 1338 2731 1133 3434 
Q 928 4138 513 4856 
z
" transform="scale(0.015625)"/>
     </defs>
     <use xlink:href="#DejaVuSans-Oblique-26" transform="translate(0.957031 42.046875) scale(0.7)"/>
     <use xlink:href="#DejaVuSans-Oblique-27" transform="translate(52.568359 0.746875)"/>
     <use xlink:href="#DejaVuSans-Oblique-345" transform="translate(136.587083 42.046875) scale(0.7)"/>
     <use xlink:href="#DejaVuSans-Oblique-5b" transform="translate(185.464036 0.746875)"/>
     <use xlink:href="#DejaVuSans-Oblique-4c" transform="translate(244.643724 -14.253076) scale(0.7)"/>
     <use xlink:href="#DejaVuSans-b" transform="translate(266.826341 0.746875)"/>
     <use xlink:href="#DejaVuSans-Oblique-57" transform="translate(305.840013 0.746875)"/>
     <use xlink:href="#DejaVuSans-c" transform="translate(345.048997 0.746875)"/>
    </g>
   </g>
   <g id="text_2">
    <!-- Backlog state -->
    <g transform="translate(79.203594 306.414352) scale(0.1 -0.1)">
     <defs>
      <path id="DejaVuSans-25" d="M 1259 2228 
L 1259 519 
L 2272 519 
Q 2781 519 3026 730 
Q 3272 941 3272 1375 
Q 3272 1813 3026 2020 
Q 2781 2228 2272 2228 
L 1259 2228 
z
M 1259 4147 
L 1259 2741 
L 2194 2741 
Q 2656 2741 2882 2914 
Q 3109 3088 3109 3444 
Q 3109 3797 2882 3972 
Q 2656 4147 2194 4147 
L 1259 4147 
z
M 628 4666 
L 2241 4666 
Q 2963 4666 3353 4366 
Q 3744 4066 3744 3513 
Q 3744 3084 3544 2831 
Q 3344 2578 2956 2516 
Q 3422 2416 3680 2098 
Q 3938 1781 3938 1306 
Q 3938 681 3513 340 
Q 3088 0 2303 0 
L 628 0 
L 628 4666 
z
" transform="scale(0.015625)"/>
      <path id="DejaVuSans-46" d="M 3122 3366 
L 3122 2828 
Q 2878 2963 2633 3030 
Q 2388 3097 2138 3097 
Q 1578 3097 1268 2742 
Q 959 2388 959 1747 
Q 959 1106 1268 751 
Q 1578 397 2138 397 
Q 2388 397 2633 464 
Q 2878 531 3122 666 
L 3122 134 
Q 2881 22 2623 -34 
Q 2366 -91 2075 -91 
Q 1284 -91 818 406 
Q 353 903 353 1747 
Q 353 2603 823 3093 
Q 1294 3584 2113 3584 
Q 2378 3584 2631 3529 
Q 2884 3475 3122 3366 
z
" transform="scale(0.015625)"/>
      <path id="DejaVuSans-4e" d="M 581 4863 
L 1159 4863 
L 1159 1991 
L 2875 3500 
L 3609 3500 
L 1753 1863 
L 3688 0 
L 2938 0 
L 1159 1709 
L 1159 0 
L 581 0 
L 581 4863 
z
" transform="scale(0.015625)"/>
      <path id="DejaVuSans-4f" d="M 603 4863 
L 1178 4863 
L 1178 0 
L 603 0 
L 603 4863 
z
" transform="scale(0.015625)"/>
     </defs>
     <use xlink:href="#DejaVuSans-25"/>
     <use xlink:href="#DejaVuSans-44" transform="translate(68.609375 0)"/>
     <use xlink:href="#DejaVuSans-46" transform="translate(129.890625 0)"/>
     <use xlink:href="#DejaVuSans-4e" transform="translate(184.875 0)"/>
     <use xlink:href="#DejaVuSans-4f" transform="translate(242.78125 0)"/>
     <use xlink:href="#DejaVuSans-52" transform="translate(270.5625 0)"/>
     <use xlink:href="#DejaVuSans-4a" transform="translate(331.75 0)"/>
     <use xlink:href="#DejaVuSans-3" transform="translate(395.234375 0)"/>
     <use xlink:href="#DejaVuSans-56" transform="translate(427.015625 0)"/>
     <use xlink:href="#DejaVuSans-57" transform="translate(479.109375 0)"/>
     <use xlink:href="#DejaVuSans-44" transform="translate(518.3125 0)"/>
     <use xlink:href="#DejaVuSans-57" transform="translate(579.59375 0)"/>
     <use xlink:href="#DejaVuSans-48" transform="translate(618.796875 0)"/>
    </g>
    <!-- $^{C}D^{\beta}q_i(t)$ -->
    <g transform="translate(93.87 320.318648) scale(0.1 -0.1)">
     <defs>
      <path id="DejaVuSans-Oblique-346" d="M 872 216 
L 572 -1331 
L -6 -1331 
L 928 3478 
Q 1206 4903 2538 4903 
Q 3888 4903 3659 3700 
Q 3503 2844 2894 2531 
Q 3713 2250 3553 1416 
Q 3272 -69 1759 -66 
Q 1097 -63 872 216 
z
M 1019 966 
Q 1259 422 1875 425 
Q 2775 425 2966 1406 
Q 3138 2288 1675 2219 
L 1778 2750 
Q 2909 2731 3106 3750 
Q 3241 4438 2509 4434 
Q 1691 4434 1503 3459 
L 1019 966 
z
" transform="scale(0.015625)"/>
      <path id="DejaVuSans-Oblique-54" d="M 2669 525 
Q 2438 222 2123 65 
Q 1809 -91 1428 -91 
Q 897 -91 595 267 
Q 294 625 294 1253 
Q 294 1759 480 2231 
Q 666 2703 1013 3078 
Q 1238 3322 1530 3453 
Q 1822 3584 2144 3584 
Q 2531 3584 2781 3431 
Q 3031 3278 3144 2969 
L 3244 3494 
L 3822 3494 
L 2888 -1319 
L 2309 -1319 
L 2669 525 
z
M 891 1338 
Q 891 875 1084 633 
Q 1278 391 1644 391 
Q 2188 391 2572 911 
Q 2956 1431 2956 2175 
Q 2956 2625 2757 2864 
Q 2559 3103 2188 3103 
Q 1916 3103 1684 2976 
Q 1453 2850 1281 2606 
Q 1100 2350 995 2006 
Q 891 1663 891 1338 
z
" transform="scale(0.015625)"/>
     </defs>
     <use xlink:href="#DejaVuSans-Oblique-26" transform="translate(0.957031 41.373438) scale(0.7)"/>
     <use xlink:href="#DejaVuSans-Oblique-27" transform="translate(52.568359 0.073438)"/>
     <use xlink:href="#DejaVuSans-Oblique-346" transform="translate(136.587083 41.373438) scale(0.7)"/>
     <use xlink:href="#DejaVuSans-Oblique-54" transform="translate(183.99431 0.073438)"/>
     <use xlink:href="#DejaVuSans-Oblique-4c" transform="translate(247.470872 -14.926514) scale(0.7)"/>
     <use xlink:href="#DejaVuSans-b" transform="translate(269.65349 0.073438)"/>
     <use xlink:href="#DejaVuSans-Oblique-57" transform="translate(308.667161 0.073438)"/>
     <use xlink:href="#DejaVuSans-c" transform="translate(347.876146 0.073438)"/>
    </g>
   </g>
   <g id="text_3">
    <!-- M1 network -->
    <g transform="translate(429.790937 121.687523) scale(0.1 -0.1)">
     <defs>
      <path id="DejaVuSans-30" d="M 628 4666 
L 1569 4666 
L 2759 1491 
L 3956 4666 
L 4897 4666 
L 4897 0 
L 4281 0 
L 4281 4097 
L 3078 897 
L 2444 897 
L 1241 4097 
L 1241 0 
L 628 0 
L 628 4666 
z
" transform="scale(0.015625)"/>
      <path id="DejaVuSans-14" d="M 794 531 
L 1825 531 
L 1825 4091 
L 703 3866 
L 703 4441 
L 1819 4666 
L 2450 4666 
L 2450 531 
L 3481 531 
L 3481 0 
L 794 0 
L 794 531 
z
" transform="scale(0.015625)"/>
      <path id="DejaVuSans-5a" d="M 269 3500 
L 844 3500 
L 1563 769 
L 2278 3500 
L 2956 3500 
L 3675 769 
L 4391 3500 
L 4966 3500 
L 4050 0 
L 3372 0 
L 2619 2869 
L 1863 0 
L 1184 0 
L 269 3500 
z
" transform="scale(0.015625)"/>
     </defs>
     <use xlink:href="#DejaVuSans-30"/>
     <use xlink:href="#DejaVuSans-14" transform="translate(86.28125 0)"/>
     <use xlink:href="#DejaVuSans-3" transform="translate(149.90625 0)"/>
     <use xlink:href="#DejaVuSans-51" transform="translate(181.6875 0)"/>
     <use xlink:href="#DejaVuSans-48" transform="translate(245.0625 0)"/>
     <use xlink:href="#DejaVuSans-57" transform="translate(306.59375 0)"/>
     <use xlink:href="#DejaVuSans-5a" transform="translate(345.796875 0)"/>
     <use xlink:href="#DejaVuSans-52" transform="translate(427.578125 0)"/>
     <use xlink:href="#DejaVuSans-55" transform="translate(488.765625 0)"/>
     <use xlink:href="#DejaVuSans-4e" transform="translate(529.875 0)"/>
    </g>
    <!-- propagation $\beta_{ij}a_{ij}$ -->
    <g transform="translate(416.93 133.79182) scale(0.1 -0.1)">
     <defs>
      <path id="DejaVuSans-53" d="M 1159 525 
L 1159 -1331 
L 581 -1331 
L 581 3500 
L 1159 3500 
L 1159 2969 
Q 1341 3281 1617 3432 
Q 1894 3584 2278 3584 
Q 2916 3584 3314 3078 
Q 3713 2572 3713 1747 
Q 3713 922 3314 415 
Q 2916 -91 2278 -91 
Q 1894 -91 1617 61 
Q 1341 213 1159 525 
z
M 3116 1747 
Q 3116 2381 2855 2742 
Q 2594 3103 2138 3103 
Q 1681 3103 1420 2742 
Q 1159 2381 1159 1747 
Q 1159 1113 1420 752 
Q 1681 391 2138 391 
Q 2594 391 2855 752 
Q 3116 1113 3116 1747 
z
" transform="scale(0.015625)"/>
      <path id="DejaVuSans-Oblique-4d" d="M 928 3500 
L 1503 3500 
L 813 -63 
L 809 -78 
Q 694 -675 544 -897 
Q 403 -1106 132 -1218 
Q -138 -1331 -506 -1331 
L -722 -1331 
L -628 -844 
L -481 -844 
Q -144 -844 -1 -703 
Q 141 -563 238 -63 
L 928 3500 
z
M 1197 4863 
L 1772 4863 
L 1631 4134 
L 1056 4134 
L 1197 4863 
z
" transform="scale(0.015625)"/>
      <path id="DejaVuSans-Oblique-44" d="M 3438 1997 
L 3047 0 
L 2472 0 
L 2578 531 
Q 2325 219 2001 64 
Q 1678 -91 1281 -91 
Q 834 -91 548 182 
Q 263 456 263 884 
Q 263 1497 752 1853 
Q 1241 2209 2100 2209 
L 2900 2209 
L 2931 2363 
Q 2938 2388 2941 2417 
Q 2944 2447 2944 2509 
Q 2944 2788 2717 2942 
Q 2491 3097 2081 3097 
Q 1800 3097 1504 3025 
Q 1209 2953 897 2809 
L 997 3341 
Q 1322 3463 1633 3523 
Q 1944 3584 2234 3584 
Q 2853 3584 3176 3315 
Q 3500 3047 3500 2534 
Q 3500 2431 3484 2292 
Q 3469 2153 3438 1997 
z
M 2816 1759 
L 2241 1759 
Q 1534 1759 1195 1570 
Q 856 1381 856 984 
Q 856 709 1029 553 
Q 1203 397 1509 397 
Q 1978 397 2328 733 
Q 2678 1069 2791 1631 
L 2816 1759 
z
" transform="scale(0.015625)"/>
     </defs>
     <use xlink:href="#DejaVuSans-53" transform="translate(0 0.390625)"/>
     <use xlink:href="#DejaVuSans-55" transform="translate(63.476562 0.390625)"/>
     <use xlink:href="#DejaVuSans-52" transform="translate(102.589844 0.390625)"/>
     <use xlink:href="#DejaVuSans-53" transform="translate(163.771484 0.390625)"/>
     <use xlink:href="#DejaVuSans-44" transform="translate(227.248047 0.390625)"/>
     <use xlink:href="#DejaVuSans-4a" transform="translate(288.527344 0.390625)"/>
     <use xlink:href="#DejaVuSans-44" transform="translate(352.003906 0.390625)"/>
     <use xlink:href="#DejaVuSans-57" transform="translate(413.283203 0.390625)"/>
     <use xlink:href="#DejaVuSans-4c" transform="translate(452.492188 0.390625)"/>
     <use xlink:href="#DejaVuSans-52" transform="translate(480.275391 0.390625)"/>
     <use xlink:href="#DejaVuSans-51" transform="translate(541.457031 0.390625)"/>
     <use xlink:href="#DejaVuSans-3" transform="translate(604.835938 0.390625)"/>
     <use xlink:href="#DejaVuSans-Oblique-346" transform="translate(636.623047 0.390625)"/>
     <use xlink:href="#DejaVuSans-Oblique-4c" transform="translate(700.441406 -14.609326) scale(0.7)"/>
     <use xlink:href="#DejaVuSans-Oblique-4d" transform="translate(719.889648 -14.609326) scale(0.7)"/>
     <use xlink:href="#DejaVuSans-Oblique-44" transform="translate(742.072266 0.390625)"/>
     <use xlink:href="#DejaVuSans-Oblique-4c" transform="translate(803.351562 -14.609326) scale(0.7)"/>
     <use xlink:href="#DejaVuSans-Oblique-4d" transform="translate(822.799805 -14.609326) scale(0.7)"/>
    </g>
   </g>
   <g id="text_4">
    <!-- M2 backlog -->
    <g transform="translate(430.590156 206.679523) scale(0.1 -0.1)">
     <defs>
      <path id="DejaVuSans-15" d="M 1228 531 
L 3431 531 
L 3431 0 
L 469 0 
L 469 531 
Q 828 903 1448 1529 
Q 2069 2156 2228 2338 
Q 2531 2678 2651 2914 
Q 2772 3150 2772 3378 
Q 2772 3750 2511 3984 
Q 2250 4219 1831 4219 
Q 1534 4219 1204 4116 
Q 875 4013 500 3803 
L 500 4441 
Q 881 4594 1212 4672 
Q 1544 4750 1819 4750 
Q 2544 4750 2975 4387 
Q 3406 4025 3406 3419 
Q 3406 3131 3298 2873 
Q 3191 2616 2906 2266 
Q 2828 2175 2409 1742 
Q 1991 1309 1228 531 
z
" transform="scale(0.015625)"/>
      <path id="DejaVuSans-45" d="M 3116 1747 
Q 3116 2381 2855 2742 
Q 2594 3103 2138 3103 
Q 1681 3103 1420 2742 
Q 1159 2381 1159 1747 
Q 1159 1113 1420 752 
Q 1681 391 2138 391 
Q 2594 391 2855 752 
Q 3116 1113 3116 1747 
z
M 1159 2969 
Q 1341 3281 1617 3432 
Q 1894 3584 2278 3584 
Q 2916 3584 3314 3078 
Q 3713 2572 3713 1747 
Q 3713 922 3314 415 
Q 2916 -91 2278 -91 
Q 1894 -91 1617 61 
Q 1341 213 1159 525 
L 1159 0 
L 581 0 
L 581 4863 
L 1159 4863 
L 1159 2969 
z
" transform="scale(0.015625)"/>
     </defs>
     <use xlink:href="#DejaVuSans-30"/>
     <use xlink:href="#DejaVuSans-15" transform="translate(86.28125 0)"/>
     <use xlink:href="#DejaVuSans-3" transform="translate(149.90625 0)"/>
     <use xlink:href="#DejaVuSans-45" transform="translate(181.6875 0)"/>
     <use xlink:href="#DejaVuSans-44" transform="translate(245.171875 0)"/>
     <use xlink:href="#DejaVuSans-46" transform="translate(306.453125 0)"/>
     <use xlink:href="#DejaVuSans-4e" transform="translate(361.4375 0)"/>
     <use xlink:href="#DejaVuSans-4f" transform="translate(419.34375 0)"/>
     <use xlink:href="#DejaVuSans-52" transform="translate(447.125 0)"/>
     <use xlink:href="#DejaVuSans-4a" transform="translate(508.3125 0)"/>
    </g>
    <!-- spillover $w_{ij}$ -->
    <g transform="translate(430.28 218.68382) scale(0.1 -0.1)">
     <defs>
      <path id="DejaVuSans-59" d="M 191 3500 
L 800 3500 
L 1894 563 
L 2988 3500 
L 3597 3500 
L 2284 0 
L 1503 0 
L 191 3500 
z
" transform="scale(0.015625)"/>
      <path id="DejaVuSans-Oblique-5a" d="M 544 3500 
L 1113 3500 
L 1259 684 
L 2566 3500 
L 3231 3500 
L 3425 684 
L 4666 3500 
L 5241 3500 
L 3641 0 
L 2969 0 
L 2797 2900 
L 1459 0 
L 781 0 
L 544 3500 
z
" transform="scale(0.015625)"/>
     </defs>
     <use xlink:href="#DejaVuSans-56" transform="translate(0 0.015625)"/>
     <use xlink:href="#DejaVuSans-53" transform="translate(52.099609 0.015625)"/>
     <use xlink:href="#DejaVuSans-4c" transform="translate(115.576172 0.015625)"/>
     <use xlink:href="#DejaVuSans-4f" transform="translate(143.359375 0.015625)"/>
     <use xlink:href="#DejaVuSans-4f" transform="translate(171.142578 0.015625)"/>
     <use xlink:href="#DejaVuSans-52" transform="translate(198.925781 0.015625)"/>
     <use xlink:href="#DejaVuSans-59" transform="translate(260.107422 0.015625)"/>
     <use xlink:href="#DejaVuSans-48" transform="translate(319.287109 0.015625)"/>
     <use xlink:href="#DejaVuSans-55" transform="translate(380.810547 0.015625)"/>
     <use xlink:href="#DejaVuSans-3" transform="translate(421.923828 0.015625)"/>
     <use xlink:href="#DejaVuSans-Oblique-5a" transform="translate(453.710938 0.015625)"/>
     <use xlink:href="#DejaVuSans-Oblique-4c" transform="translate(535.498047 -14.984326) scale(0.7)"/>
     <use xlink:href="#DejaVuSans-Oblique-4d" transform="translate(554.946289 -14.984326) scale(0.7)"/>
    </g>
   </g>
   <g id="text_5">
    <!-- M3 priority -->
    <g transform="translate(432.053438 284.198352) scale(0.1 -0.1)">
     <defs>
      <path id="DejaVuSans-16" d="M 2597 2516 
Q 3050 2419 3304 2112 
Q 3559 1806 3559 1356 
Q 3559 666 3084 287 
Q 2609 -91 1734 -91 
Q 1441 -91 1130 -33 
Q 819 25 488 141 
L 488 750 
Q 750 597 1062 519 
Q 1375 441 1716 441 
Q 2309 441 2620 675 
Q 2931 909 2931 1356 
Q 2931 1769 2642 2001 
Q 2353 2234 1838 2234 
L 1294 2234 
L 1294 2753 
L 1863 2753 
Q 2328 2753 2575 2939 
Q 2822 3125 2822 3475 
Q 2822 3834 2567 4026 
Q 2313 4219 1838 4219 
Q 1578 4219 1281 4162 
Q 984 4106 628 3988 
L 628 4550 
Q 988 4650 1302 4700 
Q 1616 4750 1894 4750 
Q 2613 4750 3031 4423 
Q 3450 4097 3450 3541 
Q 3450 3153 3228 2886 
Q 3006 2619 2597 2516 
z
" transform="scale(0.015625)"/>
      <path id="DejaVuSans-5c" d="M 2059 -325 
Q 1816 -950 1584 -1140 
Q 1353 -1331 966 -1331 
L 506 -1331 
L 506 -850 
L 844 -850 
Q 1081 -850 1212 -737 
Q 1344 -625 1503 -206 
L 1606 56 
L 191 3500 
L 800 3500 
L 1894 763 
L 2988 3500 
L 3597 3500 
L 2059 -325 
z
" transform="scale(0.015625)"/>
     </defs>
     <use xlink:href="#DejaVuSans-30"/>
     <use xlink:href="#DejaVuSans-16" transform="translate(86.28125 0)"/>
     <use xlink:href="#DejaVuSans-3" transform="translate(149.90625 0)"/>
     <use xlink:href="#DejaVuSans-53" transform="translate(181.6875 0)"/>
     <use xlink:href="#DejaVuSans-55" transform="translate(245.171875 0)"/>
     <use xlink:href="#DejaVuSans-4c" transform="translate(286.28125 0)"/>
     <use xlink:href="#DejaVuSans-52" transform="translate(314.0625 0)"/>
     <use xlink:href="#DejaVuSans-55" transform="translate(375.25 0)"/>
     <use xlink:href="#DejaVuSans-4c" transform="translate(416.359375 0)"/>
     <use xlink:href="#DejaVuSans-57" transform="translate(444.140625 0)"/>
     <use xlink:href="#DejaVuSans-5c" transform="translate(483.34375 0)"/>
    </g>
    <!-- conflict $\Phi_i$ -->
    <g transform="translate(434.23 296.202648) scale(0.1 -0.1)">
     <defs>
      <path id="DejaVuSans-49" d="M 2375 4863 
L 2375 4384 
L 1825 4384 
Q 1516 4384 1395 4259 
Q 1275 4134 1275 3809 
L 1275 3500 
L 2222 3500 
L 2222 3053 
L 1275 3053 
L 1275 0 
L 697 0 
L 697 3053 
L 147 3053 
L 147 3500 
L 697 3500 
L 697 3744 
Q 697 4328 969 4595 
Q 1241 4863 1831 4863 
L 2375 4863 
z
" transform="scale(0.015625)"/>
      <path id="DejaVuSans-33a" d="M 2206 3644 
Q 1738 3578 1431 3306 
Q 1025 2947 1025 2328 
Q 1025 1713 1431 1353 
Q 1738 1081 2206 1016 
L 2206 3644 
z
M 2838 1016 
Q 3306 1081 3613 1353 
Q 4013 1713 4013 2328 
Q 4013 2947 3613 3306 
Q 3306 3578 2838 3644 
L 2838 1016 
z
M 2206 494 
Q 1444 563 950 981 
Q 359 1481 359 2328 
Q 359 3175 950 3678 
Q 1441 4100 2206 4169 
L 2206 4666 
L 2838 4666 
L 2838 4169 
Q 3600 4097 4091 3678 
Q 4678 3175 4678 2328 
Q 4678 1484 4091 981 
Q 3600 563 2838 491 
L 2838 0 
L 2206 0 
L 2206 494 
z
" transform="scale(0.015625)"/>
     </defs>
     <use xlink:href="#DejaVuSans-46" transform="translate(0 0.015625)"/>
     <use xlink:href="#DejaVuSans-52" transform="translate(54.980469 0.015625)"/>
     <use xlink:href="#DejaVuSans-51" transform="translate(116.162109 0.015625)"/>
     <use xlink:href="#DejaVuSans-49" transform="translate(179.541016 0.015625)"/>
     <use xlink:href="#DejaVuSans-4f" transform="translate(214.746094 0.015625)"/>
     <use xlink:href="#DejaVuSans-4c" transform="translate(242.529297 0.015625)"/>
     <use xlink:href="#DejaVuSans-46" transform="translate(270.3125 0.015625)"/>
     <use xlink:href="#DejaVuSans-57" transform="translate(325.292969 0.015625)"/>
     <use xlink:href="#DejaVuSans-3" transform="translate(364.501953 0.015625)"/>
     <use xlink:href="#DejaVuSans-33a" transform="translate(396.289062 0.015625)"/>
     <use xlink:href="#DejaVuSans-Oblique-4c" transform="translate(475.957031 -14.984326) scale(0.7)"/>
    </g>
   </g>
   <g id="text_6">
    <!-- M4 reconfig. -->
    <g transform="translate(255.203906 369.140352) scale(0.1 -0.1)">
     <defs>
      <path id="DejaVuSans-17" d="M 2419 4116 
L 825 1625 
L 2419 1625 
L 2419 4116 
z
M 2253 4666 
L 3047 4666 
L 3047 1625 
L 3713 1625 
L 3713 1100 
L 3047 1100 
L 3047 0 
L 2419 0 
L 2419 1100 
L 313 1100 
L 313 1709 
L 2253 4666 
z
" transform="scale(0.015625)"/>
      <path id="DejaVuSans-13af" d="M 3431 3500 
L 3431 0 
L 2853 0 
L 2853 3053 
L 1275 3053 
L 1275 0 
L 697 0 
L 697 3053 
L 147 3053 
L 147 3500 
L 697 3500 
L 697 3744 
Q 697 4316 967 4589 
Q 1238 4863 1797 4863 
L 2375 4863 
L 2375 4384 
L 1825 4384 
Q 1516 4384 1395 4259 
Q 1275 4134 1275 3809 
L 1275 3500 
L 3431 3500 
z
M 2853 4856 
L 3431 4856 
L 3431 4128 
L 2853 4128 
L 2853 4856 
z
" transform="scale(0.015625)"/>
      <path id="DejaVuSans-11" d="M 684 794 
L 1344 794 
L 1344 0 
L 684 0 
L 684 794 
z
" transform="scale(0.015625)"/>
     </defs>
     <use xlink:href="#DejaVuSans-30"/>
     <use xlink:href="#DejaVuSans-17" transform="translate(86.28125 0)"/>
     <use xlink:href="#DejaVuSans-3" transform="translate(149.90625 0)"/>
     <use xlink:href="#DejaVuSans-55" transform="translate(181.6875 0)"/>
     <use xlink:href="#DejaVuSans-48" transform="translate(220.59375 0)"/>
     <use xlink:href="#DejaVuSans-46" transform="translate(282.125 0)"/>
     <use xlink:href="#DejaVuSans-52" transform="translate(337.109375 0)"/>
     <use xlink:href="#DejaVuSans-51" transform="translate(398.296875 0)"/>
     <use xlink:href="#DejaVuSans-13af" transform="translate(461.671875 0)"/>
     <use xlink:href="#DejaVuSans-4a" transform="translate(524.65625 0)"/>
     <use xlink:href="#DejaVuSans-11" transform="translate(588.140625 0)"/>
    </g>
    <!-- failure $\pi(t)$ -->
    <g transform="translate(259.9 381.144648) scale(0.1 -0.1)">
     <defs>
      <path id="DejaVuSans-58" d="M 544 1381 
L 544 3500 
L 1119 3500 
L 1119 1403 
Q 1119 906 1312 657 
Q 1506 409 1894 409 
Q 2359 409 2629 706 
Q 2900 1003 2900 1516 
L 2900 3500 
L 3475 3500 
L 3475 0 
L 2900 0 
L 2900 538 
Q 2691 219 2414 64 
Q 2138 -91 1772 -91 
Q 1169 -91 856 284 
Q 544 659 544 1381 
z
M 1991 3584 
L 1991 3584 
z
" transform="scale(0.015625)"/>
      <path id="DejaVuSans-Oblique-354" d="M 584 3500 
L 3938 3500 
L 3825 2925 
L 3384 2925 
L 2966 775 
Q 2922 550 2981 450 
Q 3038 353 3209 353 
Q 3256 353 3325 363 
Q 3397 369 3419 372 
L 3338 -44 
Q 3222 -84 3103 -103 
Q 2981 -122 2866 -122 
Q 2491 -122 2388 81 
Q 2284 288 2391 838 
L 2797 2925 
L 1506 2925 
L 938 0 
L 350 0 
L 919 2925 
L 472 2925 
L 584 3500 
z
" transform="scale(0.015625)"/>
     </defs>
     <use xlink:href="#DejaVuSans-49" transform="translate(0 0.015625)"/>
     <use xlink:href="#DejaVuSans-44" transform="translate(35.205078 0.015625)"/>
     <use xlink:href="#DejaVuSans-4c" transform="translate(96.484375 0.015625)"/>
     <use xlink:href="#DejaVuSans-4f" transform="translate(124.267578 0.015625)"/>
     <use xlink:href="#DejaVuSans-58" transform="translate(152.050781 0.015625)"/>
     <use xlink:href="#DejaVuSans-55" transform="translate(215.429688 0.015625)"/>
     <use xlink:href="#DejaVuSans-48" transform="translate(254.542969 0.015625)"/>
     <use xlink:href="#DejaVuSans-3" transform="translate(316.066406 0.015625)"/>
     <use xlink:href="#DejaVuSans-Oblique-354" transform="translate(347.853516 0.015625)"/>
     <use xlink:href="#DejaVuSans-b" transform="translate(408.058594 0.015625)"/>
     <use xlink:href="#DejaVuSans-Oblique-57" transform="translate(447.072266 0.015625)"/>
     <use xlink:href="#DejaVuSans-c" transform="translate(486.28125 0.015625)"/>
    </g>
   </g>
   <g id="text_7">
    <!-- $f(x_j(t-\tau_{ij}))$ -->
    <g transform="translate(263.3775 115.144453) scale(0.085 -0.085)">
     <defs>
      <path id="DejaVuSans-Oblique-49" d="M 3059 4863 
L 2969 4384 
L 2419 4384 
Q 2106 4384 1964 4261 
Q 1822 4138 1753 3809 
L 1691 3500 
L 2638 3500 
L 2553 3053 
L 1606 3053 
L 1013 0 
L 434 0 
L 1031 3053 
L 481 3053 
L 563 3500 
L 1113 3500 
L 1159 3744 
Q 1278 4363 1576 4613 
Q 1875 4863 2516 4863 
L 3059 4863 
z
" transform="scale(0.015625)"/>
      <path id="DejaVuSans-c9c" d="M 678 2272 
L 4684 2272 
L 4684 1741 
L 678 1741 
L 678 2272 
z
" transform="scale(0.015625)"/>
      <path id="DejaVuSans-Oblique-358" d="M 2103 638 
Q 2188 488 2525 488 
L 2800 488 
L 2706 0 
L 2363 0 
Q 1800 0 1600 300 
Q 1403 606 1534 1269 
L 1856 2925 
L 541 2925 
L 653 3500 
L 3881 3500 
L 3769 2925 
L 2444 2925 
L 2113 1234 
Q 2025 781 2103 638 
z
" transform="scale(0.015625)"/>
     </defs>
     <use xlink:href="#DejaVuSans-Oblique-49" transform="translate(0 0.015625)"/>
     <use xlink:href="#DejaVuSans-b" transform="translate(35.205078 0.015625)"/>
     <use xlink:href="#DejaVuSans-Oblique-5b" transform="translate(74.21875 0.015625)"/>
     <use xlink:href="#DejaVuSans-Oblique-4d" transform="translate(133.398438 -14.984326) scale(0.7)"/>
     <use xlink:href="#DejaVuSans-b" transform="translate(155.581055 0.015625)"/>
     <use xlink:href="#DejaVuSans-Oblique-57" transform="translate(194.594727 0.015625)"/>
     <use xlink:href="#DejaVuSans-c9c" transform="translate(253.286133 0.015625)"/>
     <use xlink:href="#DejaVuSans-Oblique-358" transform="translate(356.557617 0.015625)"/>
     <use xlink:href="#DejaVuSans-Oblique-4c" transform="translate(416.762695 -14.984326) scale(0.7)"/>
     <use xlink:href="#DejaVuSans-Oblique-4d" transform="translate(436.210938 -14.984326) scale(0.7)"/>
     <use xlink:href="#DejaVuSans-c" transform="translate(458.393555 0.015625)"/>
     <use xlink:href="#DejaVuSans-c" transform="translate(497.407227 0.015625)"/>
    </g>
   </g>
   <g id="text_8">
    <!-- $q_j(t-\sigma_{ij})$ -->
    <g transform="translate(267.8825 251.566453) scale(0.085 -0.085)">
     <defs>
      <path id="DejaVuSans-Oblique-357" d="M 2219 3044 
Q 1744 3044 1422 2700 
Q 1081 2341 969 1747 
Q 844 1119 1044 756 
Q 1241 397 1706 397 
Q 2166 397 2503 759 
Q 2844 1122 2966 1747 
Q 3075 2319 2881 2700 
Q 2700 3044 2219 3044 
z
M 2309 3503 
L 4219 3500 
L 4106 2925 
L 3463 2925 
Q 3706 2438 3575 1747 
Q 3406 888 2884 400 
Q 2359 -91 1609 -91 
Q 856 -91 525 400 
Q 194 888 363 1747 
Q 528 2609 1050 3097 
Q 1484 3503 2309 3503 
z
" transform="scale(0.015625)"/>
     </defs>
     <use xlink:href="#DejaVuSans-Oblique-54" transform="translate(0 0.125)"/>
     <use xlink:href="#DejaVuSans-Oblique-4d" transform="translate(63.476562 -14.874951) scale(0.7)"/>
     <use xlink:href="#DejaVuSans-b" transform="translate(85.65918 0.125)"/>
     <use xlink:href="#DejaVuSans-Oblique-57" transform="translate(124.672852 0.125)"/>
     <use xlink:href="#DejaVuSans-c9c" transform="translate(183.364258 0.125)"/>
     <use xlink:href="#DejaVuSans-Oblique-357" transform="translate(286.635742 0.125)"/>
     <use xlink:href="#DejaVuSans-Oblique-4c" transform="translate(350.014648 -14.874951) scale(0.7)"/>
     <use xlink:href="#DejaVuSans-Oblique-4d" transform="translate(369.462891 -14.874951) scale(0.7)"/>
     <use xlink:href="#DejaVuSans-c" transform="translate(391.645508 0.125)"/>
    </g>
   </g>
   <g id="text_9">
    <!-- $q_i,\, x_k$ -->
    <g transform="translate(275.32 297.898453) scale(0.085 -0.085)">
     <defs>
      <path id="DejaVuSans-f" d="M 750 794 
L 1409 794 
L 1409 256 
L 897 -744 
L 494 -744 
L 750 256 
L 750 794 
z
" transform="scale(0.015625)"/>
      <path id="DejaVuSans-Oblique-4e" d="M 1172 4863 
L 1747 4863 
L 1197 2028 
L 3169 3500 
L 3916 3500 
L 1716 1825 
L 3322 0 
L 2625 0 
L 1131 1709 
L 800 0 
L 225 0 
L 1172 4863 
z
" transform="scale(0.015625)"/>
     </defs>
     <use xlink:href="#DejaVuSans-Oblique-54"/>
     <use xlink:href="#DejaVuSans-Oblique-4c" transform="translate(63.476562 -14.999951) scale(0.7)"/>
     <use xlink:href="#DejaVuSans-f" transform="translate(85.65918 0)"/>
     <use xlink:href="#DejaVuSans-Oblique-5b" transform="translate(153.164387 0)"/>
     <use xlink:href="#DejaVuSans-Oblique-4e" transform="translate(212.344075 -14.999951) scale(0.7)"/>
    </g>
   </g>
   <g id="text_10">
    <!-- degradation $\downarrow$ service -->
    <g style="fill: #7b241c" transform="translate(64.26 207.808453) scale(0.085 -0.085)">
     <defs>
      <path id="DejaVuSans-c1d" d="M 2822 -22 
L 2541 -22 
L 1309 1209 
L 1684 1584 
L 2416 853 
L 2416 4666 
L 2947 4666 
L 2947 853 
L 3672 1584 
L 4047 1209 
L 2822 -22 
z
" transform="scale(0.015625)"/>
     </defs>
     <use xlink:href="#DejaVuSans-47" transform="translate(0 0.015625)"/>
     <use xlink:href="#DejaVuSans-48" transform="translate(63.476562 0.015625)"/>
     <use xlink:href="#DejaVuSans-4a" transform="translate(125 0.015625)"/>
     <use xlink:href="#DejaVuSans-55" transform="translate(188.476562 0.015625)"/>
     <use xlink:href="#DejaVuSans-44" transform="translate(229.589844 0.015625)"/>
     <use xlink:href="#DejaVuSans-47" transform="translate(290.869141 0.015625)"/>
     <use xlink:href="#DejaVuSans-44" transform="translate(354.345703 0.015625)"/>
     <use xlink:href="#DejaVuSans-57" transform="translate(415.625 0.015625)"/>
     <use xlink:href="#DejaVuSans-4c" transform="translate(454.833984 0.015625)"/>
     <use xlink:href="#DejaVuSans-52" transform="translate(482.617188 0.015625)"/>
     <use xlink:href="#DejaVuSans-51" transform="translate(543.798828 0.015625)"/>
     <use xlink:href="#DejaVuSans-3" transform="translate(607.177734 0.015625)"/>
     <use xlink:href="#DejaVuSans-c1d" transform="translate(658.447266 0.015625)"/>
     <use xlink:href="#DejaVuSans-3" transform="translate(761.71875 0.015625)"/>
     <use xlink:href="#DejaVuSans-56" transform="translate(793.505859 0.015625)"/>
     <use xlink:href="#DejaVuSans-48" transform="translate(845.605469 0.015625)"/>
     <use xlink:href="#DejaVuSans-55" transform="translate(907.128906 0.015625)"/>
     <use xlink:href="#DejaVuSans-59" transform="translate(948.242188 0.015625)"/>
     <use xlink:href="#DejaVuSans-4c" transform="translate(1007.421875 0.015625)"/>
     <use xlink:href="#DejaVuSans-46" transform="translate(1035.205078 0.015625)"/>
     <use xlink:href="#DejaVuSans-48" transform="translate(1090.185547 0.015625)"/>
    </g>
   </g>
   <g id="text_11">
    <!-- backlog $\to$ degrad. ($\gamma_i$) -->
    <g style="fill: #1b4f72" transform="translate(92.075 207.808453) scale(0.085 -0.085)">
     <defs>
      <path id="DejaVuSans-c1c" d="M 5050 2147 
L 5050 1866 
L 3822 638 
L 3447 1013 
L 4175 1741 
L 366 1741 
L 366 2272 
L 4175 2272 
L 3447 3000 
L 3822 3375 
L 5050 2147 
z
" transform="scale(0.015625)"/>
      <path id="DejaVuSans-Oblique-347" d="M 1491 2950 
L 1838 788 
L 3456 3500 
L 4066 3500 
L 1972 0 
L 1713 -1331 
L 1138 -1331 
L 1397 0 
L 988 2613 
Q 925 3006 628 3006 
L 475 3006 
L 569 3500 
L 788 3500 
Q 1403 3500 1491 2950 
z
" transform="scale(0.015625)"/>
     </defs>
     <use xlink:href="#DejaVuSans-45" transform="translate(0 0.015625)"/>
     <use xlink:href="#DejaVuSans-44" transform="translate(63.476562 0.015625)"/>
     <use xlink:href="#DejaVuSans-46" transform="translate(124.755859 0.015625)"/>
     <use xlink:href="#DejaVuSans-4e" transform="translate(179.736328 0.015625)"/>
     <use xlink:href="#DejaVuSans-4f" transform="translate(237.646484 0.015625)"/>
     <use xlink:href="#DejaVuSans-52" transform="translate(265.429688 0.015625)"/>
     <use xlink:href="#DejaVuSans-4a" transform="translate(326.611328 0.015625)"/>
     <use xlink:href="#DejaVuSans-3" transform="translate(390.087891 0.015625)"/>
     <use xlink:href="#DejaVuSans-c1c" transform="translate(441.357422 0.015625)"/>
     <use xlink:href="#DejaVuSans-3" transform="translate(544.628906 0.015625)"/>
     <use xlink:href="#DejaVuSans-47" transform="translate(576.416016 0.015625)"/>
     <use xlink:href="#DejaVuSans-48" transform="translate(639.892578 0.015625)"/>
     <use xlink:href="#DejaVuSans-4a" transform="translate(701.416016 0.015625)"/>
     <use xlink:href="#DejaVuSans-55" transform="translate(764.892578 0.015625)"/>
     <use xlink:href="#DejaVuSans-44" transform="translate(806.005859 0.015625)"/>
     <use xlink:href="#DejaVuSans-47" transform="translate(867.285156 0.015625)"/>
     <use xlink:href="#DejaVuSans-11" transform="translate(930.761719 0.015625)"/>
     <use xlink:href="#DejaVuSans-3" transform="translate(962.548828 0.015625)"/>
     <use xlink:href="#DejaVuSans-b" transform="translate(994.335938 0.015625)"/>
     <use xlink:href="#DejaVuSans-Oblique-347" transform="translate(1033.349609 0.015625)"/>
     <use xlink:href="#DejaVuSans-Oblique-4c" transform="translate(1092.529297 -14.984326) scale(0.7)"/>
     <use xlink:href="#DejaVuSans-c" transform="translate(1114.711914 0.015625)"/>
    </g>
   </g>
   <g id="text_12">
    <!-- $-\rho_i(t)x_i$ suppression -->
    <g style="fill: #b9770e" transform="translate(165.58 243.844453) scale(0.085 -0.085)">
     <defs>
      <path id="DejaVuSans-Oblique-355" d="M 1203 2875 
Q 1453 3194 1981 3475 
Q 2188 3584 2756 3584 
Q 3394 3584 3694 3078 
Q 3994 2572 3834 1747 
Q 3672 922 3175 415 
Q 2678 -91 2041 -91 
Q 1656 -91 1409 63 
Q 1163 213 1044 525 
L 681 -1331 
L 103 -1331 
L 697 1716 
Q 838 2438 1203 2875 
z
M 3238 1747 
Q 3359 2381 3169 2744 
Q 2978 3103 2522 3103 
Q 2066 3103 1734 2744 
Q 1403 2381 1281 1747 
Q 1156 1113 1347 750 
Q 1538 391 1994 391 
Q 2450 391 2781 750 
Q 3113 1113 3238 1747 
z
" transform="scale(0.015625)"/>
     </defs>
     <use xlink:href="#DejaVuSans-c9c" transform="translate(0 0.015625)"/>
     <use xlink:href="#DejaVuSans-Oblique-355" transform="translate(83.789062 0.015625)"/>
     <use xlink:href="#DejaVuSans-Oblique-4c" transform="translate(147.265625 -14.984326) scale(0.7)"/>
     <use xlink:href="#DejaVuSans-b" transform="translate(169.448242 0.015625)"/>
     <use xlink:href="#DejaVuSans-Oblique-57" transform="translate(208.461914 0.015625)"/>
     <use xlink:href="#DejaVuSans-c" transform="translate(247.670898 0.015625)"/>
     <use xlink:href="#DejaVuSans-Oblique-5b" transform="translate(286.68457 0.015625)"/>
     <use xlink:href="#DejaVuSans-Oblique-4c" transform="translate(345.864258 -14.984326) scale(0.7)"/>
     <use xlink:href="#DejaVuSans-3" transform="translate(368.046875 0.015625)"/>
     <use xlink:href="#DejaVuSans-56" transform="translate(399.833984 0.015625)"/>
     <use xlink:href="#DejaVuSans-58" transform="translate(451.933594 0.015625)"/>
     <use xlink:href="#DejaVuSans-53" transform="translate(515.3125 0.015625)"/>
     <use xlink:href="#DejaVuSans-53" transform="translate(578.789062 0.015625)"/>
     <use xlink:href="#DejaVuSans-55" transform="translate(642.265625 0.015625)"/>
     <use xlink:href="#DejaVuSans-48" transform="translate(681.378906 0.015625)"/>
     <use xlink:href="#DejaVuSans-56" transform="translate(742.902344 0.015625)"/>
     <use xlink:href="#DejaVuSans-56" transform="translate(795.001953 0.015625)"/>
     <use xlink:href="#DejaVuSans-4c" transform="translate(847.101562 0.015625)"/>
     <use xlink:href="#DejaVuSans-52" transform="translate(874.884766 0.015625)"/>
     <use xlink:href="#DejaVuSans-51" transform="translate(936.066406 0.015625)"/>
    </g>
   </g>
   <g id="text_13">
    <!-- Figure 2. Model structure: two fractional state blocks and mechanisms M1-M4 -->
    <g transform="translate(52.935937 17.519297) scale(0.12 -0.12)">
     <defs>
      <path id="DejaVuSans-29" d="M 628 4666 
L 3309 4666 
L 3309 4134 
L 1259 4134 
L 1259 2759 
L 3109 2759 
L 3109 2228 
L 1259 2228 
L 1259 0 
L 628 0 
L 628 4666 
z
" transform="scale(0.015625)"/>
      <path id="DejaVuSans-1d" d="M 750 794 
L 1409 794 
L 1409 0 
L 750 0 
L 750 794 
z
M 750 3309 
L 1409 3309 
L 1409 2516 
L 750 2516 
L 750 3309 
z
" transform="scale(0.015625)"/>
      <path id="DejaVuSans-50" d="M 3328 2828 
Q 3544 3216 3844 3400 
Q 4144 3584 4550 3584 
Q 5097 3584 5394 3201 
Q 5691 2819 5691 2113 
L 5691 0 
L 5113 0 
L 5113 2094 
Q 5113 2597 4934 2840 
Q 4756 3084 4391 3084 
Q 3944 3084 3684 2787 
Q 3425 2491 3425 1978 
L 3425 0 
L 2847 0 
L 2847 2094 
Q 2847 2600 2669 2842 
Q 2491 3084 2119 3084 
Q 1678 3084 1418 2786 
Q 1159 2488 1159 1978 
L 1159 0 
L 581 0 
L 581 3500 
L 1159 3500 
L 1159 2956 
Q 1356 3278 1631 3431 
Q 1906 3584 2284 3584 
Q 2666 3584 2933 3390 
Q 3200 3197 3328 2828 
z
" transform="scale(0.015625)"/>
      <path id="DejaVuSans-4b" d="M 3513 2113 
L 3513 0 
L 2938 0 
L 2938 2094 
Q 2938 2591 2744 2837 
Q 2550 3084 2163 3084 
Q 1697 3084 1428 2787 
Q 1159 2491 1159 1978 
L 1159 0 
L 581 0 
L 581 4863 
L 1159 4863 
L 1159 2956 
Q 1366 3272 1645 3428 
Q 1925 3584 2291 3584 
Q 2894 3584 3203 3211 
Q 3513 2838 3513 2113 
z
" transform="scale(0.015625)"/>
      <path id="DejaVuSans-10" d="M 313 2009 
L 1997 2009 
L 1997 1497 
L 313 1497 
L 313 2009 
z
" transform="scale(0.015625)"/>
     </defs>
     <use xlink:href="#DejaVuSans-29"/>
     <use xlink:href="#DejaVuSans-4c" transform="translate(50.234375 0)"/>
     <use xlink:href="#DejaVuSans-4a" transform="translate(78.015625 0)"/>
     <use xlink:href="#DejaVuSans-58" transform="translate(141.5 0)"/>
     <use xlink:href="#DejaVuSans-55" transform="translate(204.875 0)"/>
     <use xlink:href="#DejaVuSans-48" transform="translate(243.78125 0)"/>
     <use xlink:href="#DejaVuSans-3" transform="translate(305.3125 0)"/>
     <use xlink:href="#DejaVuSans-15" transform="translate(337.09375 0)"/>
     <use xlink:href="#DejaVuSans-11" transform="translate(400.71875 0)"/>
     <use xlink:href="#DejaVuSans-3" transform="translate(432.5 0)"/>
     <use xlink:href="#DejaVuSans-30" transform="translate(464.28125 0)"/>
     <use xlink:href="#DejaVuSans-52" transform="translate(550.5625 0)"/>
     <use xlink:href="#DejaVuSans-47" transform="translate(611.75 0)"/>
     <use xlink:href="#DejaVuSans-48" transform="translate(675.234375 0)"/>
     <use xlink:href="#DejaVuSans-4f" transform="translate(736.765625 0)"/>
     <use xlink:href="#DejaVuSans-3" transform="translate(764.546875 0)"/>
     <use xlink:href="#DejaVuSans-56" transform="translate(796.328125 0)"/>
     <use xlink:href="#DejaVuSans-57" transform="translate(848.421875 0)"/>
     <use xlink:href="#DejaVuSans-55" transform="translate(887.625 0)"/>
     <use xlink:href="#DejaVuSans-58" transform="translate(928.734375 0)"/>
     <use xlink:href="#DejaVuSans-46" transform="translate(992.109375 0)"/>
     <use xlink:href="#DejaVuSans-57" transform="translate(1047.09375 0)"/>
     <use xlink:href="#DejaVuSans-58" transform="translate(1086.296875 0)"/>
     <use xlink:href="#DejaVuSans-55" transform="translate(1149.671875 0)"/>
     <use xlink:href="#DejaVuSans-48" transform="translate(1188.578125 0)"/>
     <use xlink:href="#DejaVuSans-1d" transform="translate(1250.109375 0)"/>
     <use xlink:href="#DejaVuSans-3" transform="translate(1283.796875 0)"/>
     <use xlink:href="#DejaVuSans-57" transform="translate(1315.578125 0)"/>
     <use xlink:href="#DejaVuSans-5a" transform="translate(1354.78125 0)"/>
     <use xlink:href="#DejaVuSans-52" transform="translate(1436.5625 0)"/>
     <use xlink:href="#DejaVuSans-3" transform="translate(1497.75 0)"/>
     <use xlink:href="#DejaVuSans-49" transform="translate(1529.53125 0)"/>
     <use xlink:href="#DejaVuSans-55" transform="translate(1564.734375 0)"/>
     <use xlink:href="#DejaVuSans-44" transform="translate(1605.84375 0)"/>
     <use xlink:href="#DejaVuSans-46" transform="translate(1667.125 0)"/>
     <use xlink:href="#DejaVuSans-57" transform="translate(1722.109375 0)"/>
     <use xlink:href="#DejaVuSans-4c" transform="translate(1761.3125 0)"/>
     <use xlink:href="#DejaVuSans-52" transform="translate(1789.09375 0)"/>
     <use xlink:href="#DejaVuSans-51" transform="translate(1850.28125 0)"/>
     <use xlink:href="#DejaVuSans-44" transform="translate(1913.65625 0)"/>
     <use xlink:href="#DejaVuSans-4f" transform="translate(1974.9375 0)"/>
     <use xlink:href="#DejaVuSans-3" transform="translate(2002.71875 0)"/>
     <use xlink:href="#DejaVuSans-56" transform="translate(2034.5 0)"/>
     <use xlink:href="#DejaVuSans-57" transform="translate(2086.59375 0)"/>
     <use xlink:href="#DejaVuSans-44" transform="translate(2125.796875 0)"/>
     <use xlink:href="#DejaVuSans-57" transform="translate(2187.078125 0)"/>
     <use xlink:href="#DejaVuSans-48" transform="translate(2226.28125 0)"/>
     <use xlink:href="#DejaVuSans-3" transform="translate(2287.8125 0)"/>
     <use xlink:href="#DejaVuSans-45" transform="translate(2319.59375 0)"/>
     <use xlink:href="#DejaVuSans-4f" transform="translate(2383.078125 0)"/>
     <use xlink:href="#DejaVuSans-52" transform="translate(2410.859375 0)"/>
     <use xlink:href="#DejaVuSans-46" transform="translate(2472.046875 0)"/>
     <use xlink:href="#DejaVuSans-4e" transform="translate(2527.03125 0)"/>
     <use xlink:href="#DejaVuSans-56" transform="translate(2584.9375 0)"/>
     <use xlink:href="#DejaVuSans-3" transform="translate(2637.03125 0)"/>
     <use xlink:href="#DejaVuSans-44" transform="translate(2668.8125 0)"/>
     <use xlink:href="#DejaVuSans-51" transform="translate(2730.09375 0)"/>
     <use xlink:href="#DejaVuSans-47" transform="translate(2793.46875 0)"/>
     <use xlink:href="#DejaVuSans-3" transform="translate(2856.953125 0)"/>
     <use xlink:href="#DejaVuSans-50" transform="translate(2888.734375 0)"/>
     <use xlink:href="#DejaVuSans-48" transform="translate(2986.140625 0)"/>
     <use xlink:href="#DejaVuSans-46" transform="translate(3047.671875 0)"/>
     <use xlink:href="#DejaVuSans-4b" transform="translate(3102.65625 0)"/>
     <use xlink:href="#DejaVuSans-44" transform="translate(3166.03125 0)"/>
     <use xlink:href="#DejaVuSans-51" transform="translate(3227.3125 0)"/>
     <use xlink:href="#DejaVuSans-4c" transform="translate(3290.6875 0)"/>
     <use xlink:href="#DejaVuSans-56" transform="translate(3318.46875 0)"/>
     <use xlink:href="#DejaVuSans-50" transform="translate(3370.5625 0)"/>
     <use xlink:href="#DejaVuSans-56" transform="translate(3467.96875 0)"/>
     <use xlink:href="#DejaVuSans-3" transform="translate(3520.0625 0)"/>
     <use xlink:href="#DejaVuSans-30" transform="translate(3551.84375 0)"/>
     <use xlink:href="#DejaVuSans-14" transform="translate(3638.125 0)"/>
     <use xlink:href="#DejaVuSans-10" transform="translate(3701.75 0)"/>
     <use xlink:href="#DejaVuSans-30" transform="translate(3737.828125 0)"/>
     <use xlink:href="#DejaVuSans-17" transform="translate(3824.109375 0)"/>
    </g>
    <!-- (dashed: reconfiguration suppression loop, collapses as $\pi\to1$) -->
    <g transform="translate(100.26 31.924453) scale(0.12 -0.12)">
     <use xlink:href="#DejaVuSans-b" transform="translate(0 0.015625)"/>
     <use xlink:href="#DejaVuSans-47" transform="translate(39.013672 0.015625)"/>
     <use xlink:href="#DejaVuSans-44" transform="translate(102.490234 0.015625)"/>
     <use xlink:href="#DejaVuSans-56" transform="translate(163.769531 0.015625)"/>
     <use xlink:href="#DejaVuSans-4b" transform="translate(215.869141 0.015625)"/>
     <use xlink:href="#DejaVuSans-48" transform="translate(279.248047 0.015625)"/>
     <use xlink:href="#DejaVuSans-47" transform="translate(340.771484 0.015625)"/>
     <use xlink:href="#DejaVuSans-1d" transform="translate(404.248047 0.015625)"/>
     <use xlink:href="#DejaVuSans-3" transform="translate(437.939453 0.015625)"/>
     <use xlink:href="#DejaVuSans-55" transform="translate(469.726562 0.015625)"/>
     <use xlink:href="#DejaVuSans-48" transform="translate(508.839844 0.015625)"/>
     <use xlink:href="#DejaVuSans-46" transform="translate(570.363281 0.015625)"/>
     <use xlink:href="#DejaVuSans-52" transform="translate(625.34375 0.015625)"/>
     <use xlink:href="#DejaVuSans-51" transform="translate(686.525391 0.015625)"/>
     <use xlink:href="#DejaVuSans-49" transform="translate(749.904297 0.015625)"/>
     <use xlink:href="#DejaVuSans-4c" transform="translate(785.109375 0.015625)"/>
     <use xlink:href="#DejaVuSans-4a" transform="translate(812.892578 0.015625)"/>
     <use xlink:href="#DejaVuSans-58" transform="translate(876.369141 0.015625)"/>
     <use xlink:href="#DejaVuSans-55" transform="translate(939.748047 0.015625)"/>
     <use xlink:href="#DejaVuSans-44" transform="translate(980.861328 0.015625)"/>
     <use xlink:href="#DejaVuSans-57" transform="translate(1042.140625 0.015625)"/>
     <use xlink:href="#DejaVuSans-4c" transform="translate(1081.349609 0.015625)"/>
     <use xlink:href="#DejaVuSans-52" transform="translate(1109.132812 0.015625)"/>
     <use xlink:href="#DejaVuSans-51" transform="translate(1170.314453 0.015625)"/>
     <use xlink:href="#DejaVuSans-3" transform="translate(1233.693359 0.015625)"/>
     <use xlink:href="#DejaVuSans-56" transform="translate(1265.480469 0.015625)"/>
     <use xlink:href="#DejaVuSans-58" transform="translate(1317.580078 0.015625)"/>
     <use xlink:href="#DejaVuSans-53" transform="translate(1380.958984 0.015625)"/>
     <use xlink:href="#DejaVuSans-53" transform="translate(1444.435547 0.015625)"/>
     <use xlink:href="#DejaVuSans-55" transform="translate(1507.912109 0.015625)"/>
     <use xlink:href="#DejaVuSans-48" transform="translate(1547.025391 0.015625)"/>
     <use xlink:href="#DejaVuSans-56" transform="translate(1608.548828 0.015625)"/>
     <use xlink:href="#DejaVuSans-56" transform="translate(1660.648438 0.015625)"/>
     <use xlink:href="#DejaVuSans-4c" transform="translate(1712.748047 0.015625)"/>
     <use xlink:href="#DejaVuSans-52" transform="translate(1740.53125 0.015625)"/>
     <use xlink:href="#DejaVuSans-51" transform="translate(1801.712891 0.015625)"/>
     <use xlink:href="#DejaVuSans-3" transform="translate(1865.091797 0.015625)"/>
     <use xlink:href="#DejaVuSans-4f" transform="translate(1896.878906 0.015625)"/>
     <use xlink:href="#DejaVuSans-52" transform="translate(1924.662109 0.015625)"/>
     <use xlink:href="#DejaVuSans-52" transform="translate(1985.84375 0.015625)"/>
     <use xlink:href="#DejaVuSans-53" transform="translate(2047.025391 0.015625)"/>
     <use xlink:href="#DejaVuSans-f" transform="translate(2110.501953 0.015625)"/>
     <use xlink:href="#DejaVuSans-3" transform="translate(2142.289062 0.015625)"/>
     <use xlink:href="#DejaVuSans-46" transform="translate(2174.076172 0.015625)"/>
     <use xlink:href="#DejaVuSans-52" transform="translate(2229.056641 0.015625)"/>
     <use xlink:href="#DejaVuSans-4f" transform="translate(2290.238281 0.015625)"/>
     <use xlink:href="#DejaVuSans-4f" transform="translate(2318.021484 0.015625)"/>
     <use xlink:href="#DejaVuSans-44" transform="translate(2345.804688 0.015625)"/>
     <use xlink:href="#DejaVuSans-53" transform="translate(2407.083984 0.015625)"/>
     <use xlink:href="#DejaVuSans-56" transform="translate(2470.560547 0.015625)"/>
     <use xlink:href="#DejaVuSans-48" transform="translate(2522.660156 0.015625)"/>
     <use xlink:href="#DejaVuSans-56" transform="translate(2584.183594 0.015625)"/>
     <use xlink:href="#DejaVuSans-3" transform="translate(2636.283203 0.015625)"/>
     <use xlink:href="#DejaVuSans-44" transform="translate(2668.070312 0.015625)"/>
     <use xlink:href="#DejaVuSans-56" transform="translate(2729.349609 0.015625)"/>
     <use xlink:href="#DejaVuSans-3" transform="translate(2781.449219 0.015625)"/>
     <use xlink:href="#DejaVuSans-Oblique-354" transform="translate(2813.236328 0.015625)"/>
     <use xlink:href="#DejaVuSans-c1c" transform="translate(2892.923828 0.015625)"/>
     <use xlink:href="#DejaVuSans-14" transform="translate(2996.195312 0.015625)"/>
     <use xlink:href="#DejaVuSans-c" transform="translate(3059.818359 0.015625)"/>
    </g>
   </g>
  </g>
 </g>
 <defs>
  <clipPath id="pb102c972f7">
   <rect x="7.2" y="37.924453" width="558" height="360.36"/>
  </clipPath>
 </defs>
</svg>
